ffmpeg started on 2016-12-03 at 17:58:15
Report written to "Output/x264/results/ffmpeg/old_town_cross_2160p50placebo15000k.log"
Command line:
Tools/ffmpeg/ffmpeg -benchmark -y -i Input/y4m/old_town_cross_2160p50.y4m -c:v libx264 -preset placebo -b:v 15000k -an Output/x264/encoded/old_town_cross_2160p50placebo15000k.mkv
ffmpeg version N-82227-gdb23fde Copyright (c) 2000-2016 the FFmpeg developers
  built with gcc 5.4.0 (Ubuntu 5.4.0-6ubuntu1~16.04.2) 20160609
  configuration: --prefix=/home/jaroslav/ffmpeg_build --pkg-config-flags=--static --extra-cflags=-I/home/jaroslav/ffmpeg_build/include --extra-ldflags=-L/home/jaroslav/ffmpeg_build/lib --bindir=/home/jaroslav/bin --enable-gpl --enable-libass --enable-libfdk-aac --enable-libfreetype --enable-libmp3lame --enable-libopus --enable-libtheora --enable-libvorbis --enable-libvpx --enable-libx264 --enable-libx265 --enable-nvenc --enable-libmfx --enable-libxvid --enable-libgsm --enable-libopencore-amrnb --enable-version3 --enable-nonfree
  libavutil      55. 35.100 / 55. 35.100
  libavcodec     57. 66.101 / 57. 66.101
  libavformat    57. 57.100 / 57. 57.100
  libavdevice    57.  2.100 / 57.  2.100
  libavfilter     6. 66.100 /  6. 66.100
  libswscale      4.  3.100 /  4.  3.100
  libswresample   2.  4.100 /  2.  4.100
  libpostproc    54.  2.100 / 54.  2.100
Input #0, yuv4mpegpipe, from 'Input/y4m/old_town_cross_2160p50.y4m':
  Duration: 00:00:10.00, start: 0.000000, bitrate: 4976642 kb/s
    Stream #0:0: Video: rawvideo (I420 / 0x30323449), yuv420p(progressive), 3840x2160, SAR 1:1 DAR 16:9, 50 fps, 50 tbr, 50 tbn, 50 tbc
[libx264 @ 0x363c120] using SAR=1/1
[libx264 @ 0x363c120] DPB size (16 frames, 518400 mbs) > level limit (5 frames, 184320 mbs)
[libx264 @ 0x363c120] using cpu capabilities: MMX2 SSE2Fast SSSE3 SSE4.2 AVX FMA3 AVX2 LZCNT BMI2
[libx264 @ 0x363c120] profile High, level 5.2
[libx264 @ 0x363c120] 264 - core 148 - H.264/MPEG-4 AVC codec - Copyleft 2003-2016 - http://www.videolan.org/x264.html - options: cabac=1 ref=16 deblock=1:0:0 analyse=0x3:0x133 me=tesa subme=11 psy=1 psy_rd=1.00:0.00 mixed_ref=1 me_range=24 chroma_me=1 trellis=2 8x8dct=1 cqm=0 deadzone=21,11 fast_pskip=0 chroma_qp_offset=-2 threads=6 lookahead_threads=1 sliced_threads=0 nr=0 decimate=1 interlaced=0 bluray_compat=0 constrained_intra=0 bframes=16 b_pyramid=2 b_adapt=2 b_bias=0 direct=3 weightb=1 open_gop=0 weightp=2 keyint=250 keyint_min=25 scenecut=40 intra_refresh=0 rc_lookahead=60 rc=abr mbtree=1 bitrate=15000 ratetol=1.0 qcomp=0.60 qpmin=0 qpmax=69 qpstep=4 ip_ratio=1.40 aq=1:1.00
Output #0, matroska, to 'Output/x264/encoded/old_town_cross_2160p50placebo15000k.mkv':
  Metadata:
    encoder         : Lavf57.57.100
    Stream #0:0: Video: h264 (libx264) (H264 / 0x34363248), yuv420p, 3840x2160 [SAR 1:1 DAR 16:9], q=-1--1, 15000 kb/s, 50 fps, 1k tbn, 50 tbc
    Metadata:
      encoder         : Lavc57.66.101 libx264
    Side data:
      cpb: bitrate max/min/avg: 0/0/15000000 buffer size: 0 vbv_delay: -1
Stream mapping:
  Stream #0:0 -> #0:0 (rawvideo (native) -> h264 (libx264))
Press [q] to stop, [?] for help
frame=   59 fps=0.0 q=0.0 size=       0kB time=00:00:00.00 bitrate=N/A speed=   0x    frame=   84 fps=3.3 q=0.0 size=       0kB time=00:00:00.00 bitrate=N/A speed=   0x    frame=   89 fps=3.0 q=30.0 size=       1kB time=-00:00:00.01 bitrate=N/A speed=N/A    frame=   90 fps=2.1 q=30.0 size=       1kB time=00:00:00.00 bitrate=5888.0kbits/s speed=2.29e-05x    frame=   91 fps=2.0 q=30.0 size=       1kB time=00:00:00.02 bitrate= 280.4kbits/s speed=0.000457x    frame=   92 fps=1.9 q=30.0 size=       1kB time=00:00:00.04 bitrate= 143.6kbits/s speed=0.000859x    frame=   96 fps=1.6 q=30.0 size=       1kB time=00:00:00.12 bitrate=  48.7kbits/s speed=0.00198x    frame=   97 fps=1.5 q=30.0 size=       1kB time=00:00:00.14 bitrate=  41.8kbits/s speed=0.00221x    frame=  101 fps=1.6 q=32.0 size=       1kB time=00:00:00.22 bitrate=  26.6kbits/s speed=0.00342x    frame=  102 fps=1.4 q=33.0 size=       1kB time=00:00:00.24 bitrate=  24.4kbits/s speed=0.00328x    frame=  103 fps=1.3 q=33.0 size=       1kB time=00:00:00.26 bitrate=  22.6kbits/s speed=0.0034x    frame=  106 fps=1.2 q=37.0 size=       1kB time=00:00:00.32 bitrate=  18.3kbits/s speed=0.0037x    frame=  108 fps=1.2 q=46.0 size=       1kB time=00:00:00.36 bitrate=  16.3kbits/s speed=0.00393x    frame=  109 fps=1.2 q=42.0 size=       1kB time=00:00:00.38 bitrate=  15.5kbits/s speed=0.00406x    frame=  112 fps=1.2 q=40.0 size=       1kB time=00:00:00.44 bitrate=  13.4kbits/s speed=0.00458x    frame=  114 fps=1.2 q=41.0 size=       1kB time=00:00:00.48 bitrate=  12.2kbits/s speed=0.00496x    frame=  115 fps=1.1 q=42.0 size=       1kB time=00:00:00.50 bitrate=  11.8kbits/s speed=0.00499x    frame=  116 fps=1.1 q=43.0 size=       1kB time=00:00:00.52 bitrate=  11.3kbits/s speed=0.00497x    frame=  119 fps=1.1 q=44.0 size=       1kB time=00:00:00.58 bitrate=  10.1kbits/s speed=0.00545x    frame=  121 fps=1.1 q=46.0 size=       1kB time=00:00:00.62 bitrate=   9.5kbits/s speed=0.00562x    frame=  122 fps=1.1 q=47.0 size=       1kB time=00:00:00.64 bitrate=   9.2kbits/s speed=0.00561x    frame=  125 fps=1.1 q=46.0 size=       1kB time=00:00:00.70 bitrate=   8.4kbits/s speed=0.0061x    frame=  127 fps=1.1 q=47.0 size=       1kB time=00:00:00.74 bitrate=   7.9kbits/s speed=0.00633x    frame=  128 fps=1.0 q=47.0 size=       1kB time=00:00:00.76 bitrate=   7.7kbits/s speed=0.00623x    frame=  129 fps=1.1 q=47.0 size=       1kB time=00:00:00.78 bitrate=   7.5kbits/s speed=0.00636x    frame=  130 fps=1.0 q=47.0 size=       1kB time=00:00:00.80 bitrate=   7.4kbits/s speed=0.00647x    frame=  134 fps=1.0 q=45.0 size=       1kB time=00:00:00.88 bitrate=   6.7kbits/s speed=0.00681x    frame=  137 fps=1.1 q=47.0 size=       1kB time=00:00:00.94 bitrate=   6.3kbits/s speed=0.00723x    frame=  140 fps=1.0 q=46.0 size=       1kB time=00:00:01.00 bitrate=   5.9kbits/s speed=0.00718x    frame=  141 fps=1.0 q=46.0 size=       1kB time=00:00:01.02 bitrate=   5.8kbits/s speed=0.00728x    frame=  142 fps=1.0 q=45.0 size=       1kB time=00:00:01.04 bitrate=   5.7kbits/s speed=0.00738x    frame=  146 fps=1.0 q=45.0 size=       1kB time=00:00:01.12 bitrate=   5.3kbits/s speed=0.00767x    frame=  147 fps=1.0 q=45.0 size=       1kB time=00:00:01.14 bitrate=   5.2kbits/s speed=0.00776x    frame=  148 fps=1.0 q=44.0 size=       1kB time=00:00:01.16 bitrate=   5.1kbits/s speed=0.0078x    frame=  149 fps=1.0 q=44.0 size=       1kB time=00:00:01.18 bitrate=   5.0kbits/s speed=0.00787x    frame=  150 fps=0.9 q=44.0 size=       1kB time=00:00:01.20 bitrate=   4.9kbits/s speed=0.00758x    frame=  151 fps=0.9 q=44.0 size=       1kB time=00:00:01.22 bitrate=   4.8kbits/s speed=0.00766x    frame=  152 fps=0.9 q=44.0 size=       1kB time=00:00:01.24 bitrate=   4.7kbits/s speed=0.00774x    frame=  156 fps=0.9 q=43.0 size=       1kB time=00:00:01.32 bitrate=   4.5kbits/s speed=0.0079x    frame=  157 fps=0.9 q=43.0 size=       1kB time=00:00:01.34 bitrate=   4.4kbits/s speed=0.0079x    frame=  158 fps=0.9 q=43.0 size=       1kB time=00:00:01.36 bitrate=   4.3kbits/s speed=0.00797x    frame=  160 fps=0.9 q=42.0 size=       1kB time=00:00:01.40 bitrate=   4.2kbits/s speed=0.00768x    frame=  161 fps=0.9 q=42.0 size=       1kB time=00:00:01.42 bitrate=   4.1kbits/s speed=0.00774x    frame=  162 fps=0.9 q=42.0 size=       1kB time=00:00:01.44 bitrate=   4.1kbits/s speed=0.00779x    frame=  166 fps=0.9 q=42.0 size=       1kB time=00:00:01.52 bitrate=   3.9kbits/s speed=0.00786x    frame=  167 fps=0.9 q=41.0 size=       1kB time=00:00:01.54 bitrate=   3.8kbits/s speed=0.00787x    frame=  168 fps=0.8 q=41.0 size=       1kB time=00:00:01.56 bitrate=   3.8kbits/s speed=0.00786x    frame=  169 fps=0.8 q=41.0 size=       1kB time=00:00:01.58 bitrate=   3.7kbits/s speed=0.00794x    frame=  170 fps=0.8 q=41.0 size=       1kB time=00:00:01.60 bitrate=   3.7kbits/s speed=0.00757x    frame=  171 fps=0.8 q=41.0 size=       1kB time=00:00:01.62 bitrate=   3.6kbits/s speed=0.00762x    frame=  172 fps=0.8 q=41.0 size=       1kB time=00:00:01.64 bitrate=   3.6kbits/s speed=0.00767x    frame=  176 fps=0.8 q=40.0 size=       1kB time=00:00:01.72 bitrate=   3.4kbits/s speed=0.00762x    frame=  177 fps=0.8 q=40.0 size=       1kB time=00:00:01.74 bitrate=   3.4kbits/s speed=0.00766x    frame=  178 fps=0.8 q=40.0 size=       1kB time=00:00:01.76 bitrate=   3.3kbits/s speed=0.00771x    frame=  179 fps=0.8 q=40.0 size=       1kB time=00:00:01.78 bitrate=   3.3kbits/s speed=0.00772x    frame=  181 fps=0.7 q=40.0 size=    5123kB time=00:00:01.82 bitrate=23048.2kbits/s speed=0.00744x    frame=  182 fps=0.7 q=40.0 size=    5123kB time=00:00:01.84 bitrate=22797.8kbits/s speed=0.00746x    frame=  183 fps=0.7 q=40.0 size=    5123kB time=00:00:01.86 bitrate=22552.8kbits/s speed=0.0075x    frame=  185 fps=0.7 q=39.0 size=    5123kB time=00:00:01.90 bitrate=22078.3kbits/s speed=0.00764x    frame=  186 fps=0.7 q=38.0 size=    5123kB time=00:00:01.92 bitrate=21848.4kbits/s speed=0.00766x    frame=  187 fps=0.7 q=39.0 size=    5123kB time=00:00:01.94 bitrate=21623.3kbits/s speed=0.00748x    frame=  188 fps=0.7 q=39.0 size=    5123kB time=00:00:01.96 bitrate=21402.8kbits/s speed=0.00741x    frame=  190 fps=0.7 q=39.0 size=    5123kB time=00:00:02.00 bitrate=20974.9kbits/s speed=0.00745x    frame=  192 fps=0.7 q=39.0 size=    5123kB time=00:00:02.04 bitrate=20563.8kbits/s speed=0.00726x    frame=  193 fps=0.7 q=39.0 size=    5123kB time=00:00:02.06 bitrate=20364.3kbits/s speed=0.0073x    frame=  194 fps=0.7 q=39.0 size=    5123kB time=00:00:02.08 bitrate=20168.6kbits/s speed=0.00733x    frame=  198 fps=0.7 q=38.0 size=    5123kB time=00:00:02.16 bitrate=19421.9kbits/s speed=0.00729x    frame=  199 fps=0.7 q=38.0 size=    5123kB time=00:00:02.18 bitrate=19243.8kbits/s speed=0.00726x    frame=  200 fps=0.7 q=38.0 size=    5123kB time=00:00:02.20 bitrate=19069.0kbits/s speed=0.00724x    frame=  203 fps=0.6 q=38.0 size=    5123kB time=00:00:02.26 bitrate=18562.9kbits/s speed=0.00711x    frame=  204 fps=0.6 q=37.0 size=    5123kB time=00:00:02.28 bitrate=18400.2kbits/s speed=0.00714x    frame=  205 fps=0.6 q=37.0 size=    5123kB time=00:00:02.30 bitrate=18240.2kbits/s speed=0.00717x    frame=  209 fps=0.6 q=37.0 size=    5123kB time=00:00:02.38 bitrate=17627.4kbits/s speed=0.00715x    frame=  210 fps=0.6 q=37.0 size=    5123kB time=00:00:02.40 bitrate=17480.5kbits/s speed=0.00691x    frame=  211 fps=0.6 q=37.0 size=    5123kB time=00:00:02.42 bitrate=17336.1kbits/s speed=0.00694x    frame=  212 fps=0.6 q=37.0 size=    5123kB time=00:00:02.44 bitrate=17194.1kbits/s speed=0.00697x    frame=  216 fps=0.6 q=37.0 size=    5123kB time=00:00:02.52 bitrate=16648.5kbits/s speed=0.00693x    frame=  217 fps=0.6 q=37.0 size=    5123kB time=00:00:02.54 bitrate=16517.4kbits/s speed=0.00694x    frame=  218 fps=0.6 q=37.0 size=    5123kB time=00:00:02.56 bitrate=16388.4kbits/s speed=0.00696x    frame=  219 fps=0.6 q=37.0 size=    5123kB time=00:00:02.58 bitrate=16261.4kbits/s speed=0.007x    frame=  220 fps=0.6 q=37.0 size=    5123kB time=00:00:02.60 bitrate=16136.4kbits/s speed=0.00701x    frame=  221 fps=0.6 q=37.0 size=    5123kB time=00:00:02.62 bitrate=16013.3kbits/s speed=0.00677x    frame=  222 fps=0.6 q=37.0 size=    5123kB time=00:00:02.64 bitrate=15892.0kbits/s speed=0.0068x    frame=  223 fps=0.6 q=37.0 size=    5123kB time=00:00:02.66 bitrate=15772.6kbits/s speed=0.00683x    frame=  227 fps=0.6 q=36.0 size=    5123kB time=00:00:02.74 bitrate=15312.2kbits/s speed=0.00678x    frame=  228 fps=0.6 q=36.0 size=    5123kB time=00:00:02.76 bitrate=15201.3kbits/s speed=0.00676x    frame=  229 fps=0.6 q=36.0 size=    5123kB time=00:00:02.78 bitrate=15092.0kbits/s speed=0.0068x    frame=  230 fps=0.6 q=36.0 size=    5123kB time=00:00:02.80 bitrate=14984.2kbits/s speed=0.00683x    frame=  231 fps=0.6 q=36.0 size=    5123kB time=00:00:02.82 bitrate=14878.0kbits/s speed=0.00676x    frame=  232 fps=0.5 q=36.0 size=    5123kB time=00:00:02.84 bitrate=14773.2kbits/s speed=0.00666x    frame=  233 fps=0.5 q=36.0 size=    5123kB time=00:00:02.86 bitrate=14670.0kbits/s speed=0.00667x    frame=  234 fps=0.5 q=35.0 size=    5123kB time=00:00:02.88 bitrate=14568.1kbits/s speed=0.00668x    frame=  237 fps=0.5 q=36.0 size=    5123kB time=00:00:02.94 bitrate=14270.9kbits/s speed=0.00672x    frame=  238 fps=0.5 q=36.0 size=    5123kB time=00:00:02.96 bitrate=14174.5kbits/s speed=0.00666x    frame=  239 fps=0.5 q=36.0 size=    5123kB time=00:00:02.98 bitrate=14079.4kbits/s speed=0.00667x    frame=  240 fps=0.5 q=36.0 size=    5123kB time=00:00:03.00 bitrate=13985.6kbits/s speed=0.00649x    frame=  241 fps=0.5 q=36.0 size=    5123kB time=00:00:03.02 bitrate=13893.0kbits/s speed=0.00651x    frame=  242 fps=0.5 q=35.0 size=    5123kB time=00:00:03.04 bitrate=13801.6kbits/s speed=0.00654x    frame=  246 fps=0.5 q=35.0 size=    5123kB time=00:00:03.12 bitrate=13447.9kbits/s speed=0.00649x    frame=  247 fps=0.5 q=35.0 size=    5123kB time=00:00:03.14 bitrate=13362.2kbits/s speed=0.0065x    frame=  248 fps=0.5 q=35.0 size=    5123kB time=00:00:03.16 bitrate=13277.7kbits/s speed=0.0065x    frame=  251 fps=0.5 q=35.0 size=    5123kB time=00:00:03.22 bitrate=13030.4kbits/s speed=0.0064x    frame=  252 fps=0.5 q=35.0 size=    5123kB time=00:00:03.24 bitrate=12950.0kbits/s speed=0.00641x    frame=  253 fps=0.5 q=35.0 size=    5123kB time=00:00:03.26 bitrate=12870.5kbits/s speed=0.00642x    frame=  257 fps=0.5 q=35.0 size=    5123kB time=00:00:03.34 bitrate=12562.3kbits/s speed=0.00643x    frame=  258 fps=0.5 q=35.0 size=    5123kB time=00:00:03.36 bitrate=12487.6kbits/s speed=0.00643x    frame=  259 fps=0.5 q=35.0 size=    5123kB time=00:00:03.38 bitrate=12413.7kbits/s speed=0.00629x    frame=  260 fps=0.5 q=35.0 size=    5123kB time=00:00:03.40 bitrate=12340.7kbits/s speed=0.00631x    frame=  261 fps=0.5 q=35.0 size=    5123kB time=00:00:03.42 bitrate=12268.6kbits/s speed=0.00633x    frame=  265 fps=0.5 q=34.0 size=    5123kB time=00:00:03.50 bitrate=11988.2kbits/s speed=0.00623x    frame=  266 fps=0.5 q=35.0 size=    5123kB time=00:00:03.52 bitrate=11920.1kbits/s speed=0.00625x    frame=  267 fps=0.5 q=35.0 size=    5123kB time=00:00:03.54 bitrate=11852.8kbits/s speed=0.00626x    frame=  270 fps=0.5 q=34.0 size=    5123kB time=00:00:03.60 bitrate=11655.3kbits/s speed=0.0062x    frame=  271 fps=0.5 q=34.0 size=    5123kB time=00:00:03.62 bitrate=11590.9kbits/s speed=0.00619x    frame=  272 fps=0.5 q=34.0 size=    5123kB time=00:00:03.64 bitrate=11527.3kbits/s speed=0.0062x    frame=  274 fps=0.5 q=34.0 size=    5123kB time=00:00:03.68 bitrate=11402.0kbits/s speed=0.00626x    frame=  276 fps=0.5 q=34.0 size=    5123kB time=00:00:03.72 bitrate=11279.4kbits/s speed=0.00614x    frame=  277 fps=0.5 q=34.0 size=    5123kB time=00:00:03.74 bitrate=11219.1kbits/s speed=0.00614x    frame=  278 fps=0.5 q=34.0 size=    5123kB time=00:00:03.76 bitrate=11159.5kbits/s speed=0.00615x    frame=  279 fps=0.5 q=34.0 size=    5123kB time=00:00:03.78 bitrate=11100.4kbits/s speed=0.00617x    frame=  281 fps=0.5 q=34.0 size=    5123kB time=00:00:03.82 bitrate=10984.2kbits/s speed=0.00622x    frame=  282 fps=0.4 q=34.0 size=    5123kB time=00:00:03.84 bitrate=10927.1kbits/s speed=0.00613x    frame=  283 fps=0.5 q=34.0 size=    5123kB time=00:00:03.86 bitrate=10870.4kbits/s speed=0.00614x    frame=  284 fps=0.4 q=34.0 size=    5123kB time=00:00:03.88 bitrate=10814.4kbits/s speed=0.00603x    frame=  285 fps=0.4 q=34.0 size=    5123kB time=00:00:03.90 bitrate=10759.0kbits/s speed=0.00604x    frame=  286 fps=0.4 q=34.0 size=    5123kB time=00:00:03.92 bitrate=10704.1kbits/s speed=0.00606x    frame=  290 fps=0.4 q=34.0 size=    5123kB time=00:00:04.00 bitrate=10490.1kbits/s speed=0.00598x    frame=  291 fps=0.4 q=33.0 size=    5123kB time=00:00:04.02 bitrate=10437.9kbits/s speed=0.006x    frame=  292 fps=0.4 q=33.0 size=    5123kB time=00:00:04.04 bitrate=10386.2kbits/s speed=0.00601x    frame=  296 fps=0.4 q=34.0 size=    5123kB time=00:00:04.12 bitrate=10184.6kbits/s speed=0.00596x    frame=  297 fps=0.4 q=33.0 size=    5123kB time=00:00:04.14 bitrate=10135.4kbits/s speed=0.00587x    frame=  298 fps=0.4 q=33.0 size=    5123kB time=00:00:04.16 bitrate=10086.7kbits/s speed=0.00589x    frame=  299 fps=0.4 q=33.0 size=    5123kB time=00:00:04.18 bitrate=10038.5kbits/s speed=0.00591x    frame=  302 fps=0.4 q=33.0 size=    5123kB time=00:00:04.24 bitrate=9896.4kbits/s speed=0.00594x    frame=  303 fps=0.4 q=33.0 size=    5123kB time=00:00:04.26 bitrate=9850.0kbits/s speed=0.00585x    frame=  304 fps=0.4 q=33.0 size=    5123kB time=00:00:04.28 bitrate=9804.0kbits/s speed=0.00586x    frame=  305 fps=0.4 q=33.0 size=    5123kB time=00:00:04.30 bitrate=9758.4kbits/s speed=0.00588x    frame=  306 fps=0.4 q=33.0 size=    5123kB time=00:00:04.32 bitrate=9713.2kbits/s speed=0.0059x    frame=  307 fps=0.4 q=33.0 size=    5123kB time=00:00:04.34 bitrate=9668.5kbits/s speed=0.00578x    frame=  308 fps=0.4 q=33.0 size=    5123kB time=00:00:04.36 bitrate=9624.1kbits/s speed=0.0058x    frame=  309 fps=0.4 q=33.0 size=    5123kB time=00:00:04.38 bitrate=9580.2kbits/s speed=0.00581x    frame=  310 fps=0.4 q=33.0 size=    5123kB time=00:00:04.40 bitrate=9536.7kbits/s speed=0.00583x    frame=  313 fps=0.4 q=33.0 size=    5123kB time=00:00:04.46 bitrate=9408.4kbits/s speed=0.00577x    frame=  314 fps=0.4 q=33.0 size=    5123kB time=00:00:04.48 bitrate=9366.4kbits/s speed=0.00577x    frame=  315 fps=0.4 q=33.0 size=    5123kB time=00:00:04.50 bitrate=9324.8kbits/s speed=0.00578x    frame=  318 fps=0.4 q=33.0 size=    5123kB time=00:00:04.56 bitrate=9202.1kbits/s speed=0.00585x    frame=  319 fps=0.4 q=33.0 size=    5123kB time=00:00:04.58 bitrate=9161.9kbits/s speed=0.00567x    frame=  320 fps=0.4 q=33.0 size=    5123kB time=00:00:04.60 bitrate=9122.1kbits/s speed=0.00568x    frame=  321 fps=0.4 q=33.0 size=    5123kB time=00:00:04.62 bitrate=9082.6kbits/s speed=0.0057x    frame=  325 fps=0.4 q=33.0 size=    5123kB time=00:00:04.70 bitrate=8928.1kbits/s speed=0.00566x    frame=  326 fps=0.4 q=33.0 size=    5123kB time=00:00:04.72 bitrate=8890.2kbits/s speed=0.00566x    frame=  327 fps=0.4 q=33.0 size=    5123kB time=00:00:04.74 bitrate=8852.7kbits/s speed=0.00568x    frame=  328 fps=0.4 q=33.0 size=    5123kB time=00:00:04.76 bitrate=8815.5kbits/s speed=0.00569x    frame=  329 fps=0.4 q=33.0 size=    5123kB time=00:00:04.78 bitrate=8778.7kbits/s speed=0.00561x    frame=  330 fps=0.4 q=33.0 size=    5123kB time=00:00:04.80 bitrate=8742.1kbits/s speed=0.00562x    frame=  331 fps=0.4 q=33.0 size=    5123kB time=00:00:04.82 bitrate=8705.8kbits/s speed=0.00563x    frame=  332 fps=0.4 q=30.0 size=    5123kB time=00:00:04.84 bitrate=8669.9kbits/s speed=0.00563x    frame=  334 fps=0.4 q=34.0 size=    5123kB time=00:00:04.88 bitrate=8598.8kbits/s speed=0.00567x    frame=  335 fps=0.4 q=34.0 size=    5123kB time=00:00:04.90 bitrate=8563.7kbits/s speed=0.00562x    frame=  336 fps=0.4 q=34.0 size=    5123kB time=00:00:04.92 bitrate=8528.9kbits/s speed=0.00564x    frame=  337 fps=0.4 q=34.0 size=    8572kB time=00:00:04.94 bitrate=14212.1kbits/s speed=0.00565x    frame=  341 fps=0.4 q=34.0 size=    8572kB time=00:00:05.02 bitrate=13985.7kbits/s speed=0.0057x    frame=  342 fps=0.4 q=34.0 size=    8572kB time=00:00:05.04 bitrate=13930.2kbits/s speed=0.0057x    frame=  343 fps=0.4 q=34.0 size=    8572kB time=00:00:05.06 bitrate=13875.2kbits/s speed=0.00571x    frame=  347 fps=0.4 q=34.0 size=    8572kB time=00:00:05.14 bitrate=13659.2kbits/s speed=0.00577x    frame=  348 fps=0.4 q=34.0 size=    8572kB time=00:00:05.16 bitrate=13606.3kbits/s speed=0.00579x    frame=  349 fps=0.4 q=34.0 size=    8572kB time=00:00:05.18 bitrate=13553.8kbits/s speed=0.00576x    frame=  350 fps=0.4 q=34.0 size=    8572kB time=00:00:05.20 bitrate=13501.7kbits/s speed=0.00578x    frame=  351 fps=0.4 q=34.0 size=    8572kB time=00:00:05.22 bitrate=13449.9kbits/s speed=0.0058x    frame=  352 fps=0.4 q=34.0 size=    8572kB time=00:00:05.24 bitrate=13398.6kbits/s speed=0.00582x    frame=  353 fps=0.4 q=34.0 size=    8572kB time=00:00:05.26 bitrate=13347.7kbits/s speed=0.00583x    frame=  354 fps=0.4 q=34.0 size=    8572kB time=00:00:05.28 bitrate=13297.1kbits/s speed=0.00584x    frame=  355 fps=0.4 q=34.0 size=    8572kB time=00:00:05.30 bitrate=13247.0kbits/s speed=0.00581x    frame=  356 fps=0.4 q=34.0 size=    8572kB time=00:00:05.32 bitrate=13197.2kbits/s speed=0.00582x    frame=  357 fps=0.4 q=34.0 size=    8572kB time=00:00:05.34 bitrate=13147.8kbits/s speed=0.00583x    frame=  358 fps=0.4 q=34.0 size=    8572kB time=00:00:05.36 bitrate=13098.7kbits/s speed=0.00585x    frame=  359 fps=0.4 q=34.0 size=    8572kB time=00:00:05.38 bitrate=13050.0kbits/s speed=0.00583x    frame=  360 fps=0.4 q=34.0 size=    8572kB time=00:00:05.40 bitrate=13001.7kbits/s speed=0.00585x    frame=  361 fps=0.4 q=34.0 size=    8572kB time=00:00:05.42 bitrate=12953.7kbits/s speed=0.00586x    frame=  362 fps=0.4 q=34.0 size=    8572kB time=00:00:05.44 bitrate=12906.1kbits/s speed=0.00586x    frame=  363 fps=0.4 q=34.0 size=    8572kB time=00:00:05.46 bitrate=12858.8kbits/s speed=0.00587x    frame=  365 fps=0.4 q=34.0 size=    8572kB time=00:00:05.50 bitrate=12765.3kbits/s speed=0.00587x    frame=  367 fps=0.4 q=34.0 size=    8572kB time=00:00:05.54 bitrate=12673.2kbits/s speed=0.00589x    frame=  368 fps=0.4 q=34.0 size=    8572kB time=00:00:05.56 bitrate=12627.6kbits/s speed=0.0059x    frame=  369 fps=0.4 q=34.0 size=    8572kB time=00:00:05.58 bitrate=12582.4kbits/s speed=0.0059x    frame=  371 fps=0.4 q=34.0 size=    8572kB time=00:00:05.62 bitrate=12492.8kbits/s speed=0.00589x    frame=  373 fps=0.4 q=34.0 size=    8572kB time=00:00:05.66 bitrate=12404.5kbits/s speed=0.00593x    frame=  374 fps=0.4 q=34.0 size=    8572kB time=00:00:05.68 bitrate=12360.9kbits/s speed=0.00587x    frame=  375 fps=0.4 q=34.0 size=    8572kB time=00:00:05.70 bitrate=12317.5kbits/s speed=0.00589x    frame=  376 fps=0.4 q=34.0 size=    8572kB time=00:00:05.72 bitrate=12274.5kbits/s speed=0.0059x    frame=  380 fps=0.4 q=34.0 size=    8572kB time=00:00:05.80 bitrate=12105.2kbits/s speed=0.0059x    frame=  381 fps=0.4 q=34.0 size=    8572kB time=00:00:05.82 bitrate=12063.6kbits/s speed=0.00591x    frame=  383 fps=0.4 q=33.0 size=    8572kB time=00:00:05.86 bitrate=11981.3kbits/s speed=0.00595x    frame=  386 fps=0.4 q=34.0 size=    8572kB time=00:00:05.92 bitrate=11859.8kbits/s speed=0.00591x    frame=  389 fps=0.4 q=34.0 size=    8572kB time=00:00:05.98 bitrate=11740.9kbits/s speed=0.00591x    frame=  390 fps=0.4 q=34.0 size=    8572kB time=00:00:06.00 bitrate=11701.7kbits/s speed=0.00592x    frame=  391 fps=0.4 q=33.0 size=    8572kB time=00:00:06.02 bitrate=11662.9kbits/s speed=0.00593x    frame=  392 fps=0.4 q=33.0 size=    8572kB time=00:00:06.04 bitrate=11624.3kbits/s speed=0.00593x    frame=  395 fps=0.4 q=33.0 size=    8572kB time=00:00:06.10 bitrate=11509.9kbits/s speed=0.00589x    frame=  396 fps=0.4 q=33.0 size=    8572kB time=00:00:06.12 bitrate=11472.3kbits/s speed=0.00591x    frame=  397 fps=0.4 q=33.0 size=    8572kB time=00:00:06.14 bitrate=11435.0kbits/s speed=0.00592x    frame=  398 fps=0.4 q=33.0 size=    8572kB time=00:00:06.16 bitrate=11397.8kbits/s speed=0.00591x    frame=  401 fps=0.4 q=33.0 size=    8572kB time=00:00:06.22 bitrate=11287.9kbits/s speed=0.00591x    frame=  402 fps=0.4 q=33.0 size=    8572kB time=00:00:06.24 bitrate=11251.7kbits/s speed=0.00592x    frame=  403 fps=0.4 q=33.0 size=    8572kB time=00:00:06.26 bitrate=11215.8kbits/s speed=0.00587x    frame=  404 fps=0.4 q=33.0 size=    8572kB time=00:00:06.28 bitrate=11180.1kbits/s speed=0.00588x    frame=  405 fps=0.4 q=33.0 size=    8572kB time=00:00:06.30 bitrate=11144.6kbits/s speed=0.00589x    frame=  408 fps=0.4 q=33.0 size=    8572kB time=00:00:06.36 bitrate=11039.5kbits/s speed=0.00593x    frame=  409 fps=0.4 q=33.0 size=    8572kB time=00:00:06.38 bitrate=11004.9kbits/s speed=0.00585x    frame=  410 fps=0.4 q=33.0 size=    8572kB time=00:00:06.40 bitrate=10970.5kbits/s speed=0.00586x    frame=  411 fps=0.4 q=33.0 size=    8572kB time=00:00:06.42 bitrate=10936.3kbits/s speed=0.00587x    frame=  412 fps=0.4 q=33.0 size=    8572kB time=00:00:06.44 bitrate=10902.4kbits/s speed=0.00588x    frame=  414 fps=0.4 q=33.0 size=    8572kB time=00:00:06.48 bitrate=10835.1kbits/s speed=0.00591x    frame=  415 fps=0.4 q=33.0 size=    8572kB time=00:00:06.50 bitrate=10801.7kbits/s speed=0.00585x    frame=  416 fps=0.4 q=33.0 size=    8572kB time=00:00:06.52 bitrate=10768.6kbits/s speed=0.0058x    frame=  417 fps=0.4 q=33.0 size=    8572kB time=00:00:06.54 bitrate=10735.7kbits/s speed=0.00581x    frame=  418 fps=0.4 q=33.0 size=    8572kB time=00:00:06.56 bitrate=10703.0kbits/s speed=0.00582x    frame=  421 fps=0.4 q=33.0 size=    8572kB time=00:00:06.62 bitrate=10606.0kbits/s speed=0.00584x    frame=  422 fps=0.4 q=33.0 size=    8572kB time=00:00:06.64 bitrate=10574.0kbits/s speed=0.00579x    frame=  423 fps=0.4 q=33.0 size=    8572kB time=00:00:06.66 bitrate=10542.3kbits/s speed=0.00579x    frame=  424 fps=0.4 q=33.0 size=    8572kB time=00:00:06.68 bitrate=10510.7kbits/s speed=0.0058x    frame=  426 fps=0.4 q=33.0 size=    8572kB time=00:00:06.72 bitrate=10448.2kbits/s speed=0.00583x    frame=  427 fps=0.4 q=33.0 size=    8572kB time=00:00:06.74 bitrate=10417.2kbits/s speed=0.00573x    frame=  428 fps=0.4 q=33.0 size=    8572kB time=00:00:06.76 bitrate=10386.4kbits/s speed=0.00574x    frame=  429 fps=0.4 q=33.0 size=    8572kB time=00:00:06.78 bitrate=10355.7kbits/s speed=0.00575x    frame=  433 fps=0.4 q=33.0 size=    8572kB time=00:00:06.86 bitrate=10235.0kbits/s speed=0.00572x    frame=  434 fps=0.4 q=33.0 size=    8572kB time=00:00:06.88 bitrate=10205.2kbits/s speed=0.00573x    frame=  435 fps=0.4 q=33.0 size=    8572kB time=00:00:06.90 bitrate=10175.6kbits/s speed=0.00574x    frame=  438 fps=0.4 q=33.0 size=    8572kB time=00:00:06.96 bitrate=10087.9kbits/s speed=0.00568x    frame=  439 fps=0.4 q=33.0 size=    8572kB time=00:00:06.98 bitrate=10059.0kbits/s speed=0.00569x    frame=  440 fps=0.4 q=33.0 size=    8572kB time=00:00:07.00 bitrate=10030.3kbits/s speed=0.00569x    frame=  442 fps=0.4 q=33.0 size=    8572kB time=00:00:07.04 bitrate=9973.3kbits/s speed=0.00572x    frame=  444 fps=0.4 q=33.0 size=    8572kB time=00:00:07.08 bitrate=9917.0kbits/s speed=0.00568x    frame=  445 fps=0.4 q=33.0 size=    8572kB time=00:00:07.10 bitrate=9889.1kbits/s speed=0.00568x    frame=  446 fps=0.4 q=33.0 size=    8572kB time=00:00:07.12 bitrate=9861.3kbits/s speed=0.00568x    frame=  447 fps=0.4 q=33.0 size=    8572kB time=00:00:07.14 bitrate=9833.7kbits/s speed=0.00569x    frame=  448 fps=0.4 q=33.0 size=    8572kB time=00:00:07.16 bitrate=9806.2kbits/s speed=0.00563x    frame=  449 fps=0.4 q=33.0 size=    8572kB time=00:00:07.18 bitrate=9778.9kbits/s speed=0.00564x    frame=  450 fps=0.4 q=33.0 size=    8572kB time=00:00:07.20 bitrate=9751.7kbits/s speed=0.00565x    frame=  452 fps=0.4 q=33.0 size=    8572kB time=00:00:07.24 bitrate=9697.9kbits/s speed=0.00567x    frame=  454 fps=0.4 q=33.0 size=    8572kB time=00:00:07.28 bitrate=9644.6kbits/s speed=0.00563x    frame=  455 fps=0.4 q=33.0 size=    8572kB time=00:00:07.30 bitrate=9618.2kbits/s speed=0.00563x    frame=  456 fps=0.4 q=33.0 size=    8572kB time=00:00:07.32 bitrate=9591.9kbits/s speed=0.00564x    frame=  458 fps=0.3 q=33.0 size=    8572kB time=00:00:07.36 bitrate=9539.8kbits/s speed=0.00558x    frame=  459 fps=0.3 q=33.0 size=    8572kB time=00:00:07.38 bitrate=9513.9kbits/s speed=0.00559x    frame=  460 fps=0.3 q=33.0 size=    8572kB time=00:00:07.40 bitrate=9488.2kbits/s speed=0.0056x    frame=  462 fps=0.3 q=33.0 size=    8572kB time=00:00:07.44 bitrate=9437.2kbits/s speed=0.00562x    frame=  464 fps=0.3 q=33.0 size=    8572kB time=00:00:07.48 bitrate=9386.7kbits/s speed=0.00558x    frame=  465 fps=0.3 q=33.0 size=    8572kB time=00:00:07.50 bitrate=9361.7kbits/s speed=0.00559x    frame=  466 fps=0.3 q=33.0 size=    8572kB time=00:00:07.52 bitrate=9336.8kbits/s speed=0.00558x    frame=  468 fps=0.3 q=33.0 size=    8572kB time=00:00:07.56 bitrate=9287.4kbits/s speed=0.00555x    frame=  469 fps=0.3 q=33.0 size=    8572kB time=00:00:07.58 bitrate=9262.9kbits/s speed=0.00556x    frame=  470 fps=0.3 q=33.0 size=    8572kB time=00:00:07.60 bitrate=9238.5kbits/s speed=0.00557x    frame=  471 fps=0.3 q=33.0 size=    8572kB time=00:00:07.62 bitrate=9214.3kbits/s speed=0.00557x    frame=  472 fps=0.3 q=33.0 size=    8572kB time=00:00:07.64 bitrate=9190.2kbits/s speed=0.00558x    frame=  473 fps=0.3 q=33.0 size=    8572kB time=00:00:07.66 bitrate=9166.2kbits/s speed=0.00559x    frame=  474 fps=0.3 q=33.0 size=   13699kB time=00:00:07.68 bitrate=14610.5kbits/s speed=0.00552x    frame=  476 fps=0.3 q=33.0 size=   13699kB time=00:00:07.72 bitrate=14534.8kbits/s speed=0.00554x    frame=  477 fps=0.3 q=33.0 size=   13699kB time=00:00:07.74 bitrate=14497.3kbits/s speed=0.00555x    frame=  478 fps=0.3 q=33.0 size=   13699kB time=00:00:07.76 bitrate=14459.9kbits/s speed=0.00555x    frame=  480 fps=0.3 q=33.0 size=   13699kB time=00:00:07.80 bitrate=14385.8kbits/s speed=0.00548x    frame=  481 fps=0.3 q=33.0 size=   13699kB time=00:00:07.82 bitrate=14349.0kbits/s speed=0.00548x    frame=  482 fps=0.3 q=33.0 size=   13699kB time=00:00:07.84 bitrate=14312.4kbits/s speed=0.00549x    frame=  486 fps=0.3 q=33.0 size=   13699kB time=00:00:07.92 bitrate=14167.8kbits/s speed=0.00546x    frame=  487 fps=0.3 q=33.0 size=   13699kB time=00:00:07.94 bitrate=14132.1kbits/s speed=0.00546x    frame=  489 fps=0.3 q=33.0 size=   13699kB time=00:00:07.98 bitrate=14061.3kbits/s speed=0.00549x    frame=  490 fps=0.3 q=33.0 size=   13699kB time=00:00:08.00 bitrate=14026.2kbits/s speed=0.0055x    frame=  492 fps=0.3 q=33.0 size=   13699kB time=00:00:08.04 bitrate=13956.4kbits/s speed=0.00546x    frame=  493 fps=0.3 q=33.0 size=   13699kB time=00:00:08.06 bitrate=13921.8kbits/s speed=0.00547x    frame=  495 fps=0.3 q=33.0 size=   13699kB time=00:00:08.10 bitrate=13853.0kbits/s speed=0.00543x    frame=  496 fps=0.3 q=33.0 size=   13699kB time=00:00:08.12 bitrate=13818.9kbits/s speed=0.00544x    frame=  497 fps=0.3 q=33.0 size=   13699kB time=00:00:08.14 bitrate=13785.0kbits/s speed=0.00545x    frame=  500 fps=0.3 q=33.0 size=   13699kB time=00:00:08.20 bitrate=13684.1kbits/s speed=0.0054x    frame=  500 fps=0.3 q=-1.0 Lsize=   18148kB time=00:00:09.94 bitrate=14954.9kbits/s speed=0.00523x    
video:18143kB audio:0kB subtitle:0kB other streams:0kB global headers:0kB muxing overhead: 0.025535%
bench: utime=7397.180s
bench: maxrss=6465748kB
[libx264 @ 0x363c120] frame I:3     Avg QP:28.16  size:931980
[libx264 @ 0x363c120] frame P:45    Avg QP:33.76  size:121171
[libx264 @ 0x363c120] frame B:452   Avg QP:36.34  size: 22852
[libx264 @ 0x363c120] consecutive B-frames:  0.6%  0.0%  0.0%  0.0%  0.0%  0.0%  1.4%  3.2%  7.2% 30.0% 19.8%  9.6%  5.2% 14.0%  9.0%  0.0%  0.0%
[libx264 @ 0x363c120] mb I  I16..4:  8.5% 87.4%  4.1%
[libx264 @ 0x363c120] mb P  I16..4:  0.0%  0.6%  0.0%  P16..4: 39.2% 30.0%  9.4%  1.6%  0.0%    skip:19.0%
[libx264 @ 0x363c120] mb B  I16..4:  0.0%  0.0%  0.0%  B16..8: 43.1%  4.6%  0.2%  direct: 0.3%  skip:51.8%  L0:52.3% L1:47.4% BI: 0.3%
[libx264 @ 0x363c120] final ratefactor: 25.37
[libx264 @ 0x363c120] 8x8 transform intra:87.9% inter:65.5%
[libx264 @ 0x363c120] direct mvs  spatial:98.7% temporal:1.3%
[libx264 @ 0x363c120] coded y,uvDC,uvAC intra: 97.1% 87.2% 74.0% inter: 2.8% 1.9% 0.1%
[libx264 @ 0x363c120] i16 v,h,dc,p: 19% 27% 26% 28%
[libx264 @ 0x363c120] i8 v,h,dc,ddl,ddr,vr,hd,vl,hu:  5%  7%  3% 13% 17% 14% 18% 10% 12%
[libx264 @ 0x363c120] i4 v,h,dc,ddl,ddr,vr,hd,vl,hu:  3%  5%  1% 12% 16% 14% 20% 11% 16%
[libx264 @ 0x363c120] i8c dc,h,v,p: 52% 20% 13% 15%
[libx264 @ 0x363c120] Weighted P-Frames: Y:4.4% UV:2.2%
[libx264 @ 0x363c120] ref P L0: 58.0% 12.9% 14.4%  3.8%  3.1%  2.3%  2.1%  0.6%  0.6%  0.5%  0.5%  0.4%  0.4%  0.3%  0.4%  0.1%
[libx264 @ 0x363c120] ref B L0: 76.3%  8.4%  6.5%  2.0%  1.7%  1.5%  1.3%  0.4%  0.4%  0.4%  0.3%  0.3%  0.3%  0.1%  0.0%
[libx264 @ 0x363c120] ref B L1: 93.3%  6.7%
[libx264 @ 0x363c120] kb/s:14862.35
